<svg xmlns="http://www.w3.org/2000/svg" version="1.1" xmlns:xlink="http://www.w3.org/1999/xlink" xmlns:svgjs="http://svgjs.com/svgjs" width="512" height="512" x="0" y="0" viewBox="0 0 512 512" style="enable-background:new 0 0 512 512" xml:space="preserve" class=""><g><path d="M393 265.8c-7.9-1.5-16 1.8-23 9.4-.7.8-1.3 1.8-1.6 2.8l-26 82.4c-.3 0-.6 0-.9.1 1.8-17.7 3.2-33.9 4.1-52 1.1-18.7 2-34.9.9-50.2-.1-1.4-.6-2.7-1.3-3.8-6.8-9.7-14.5-12.4-19.9-13-7.4-.8-14.8 1.9-21.3 7.9-.9.8-1.5 1.8-1.9 2.9-4.5 12-6.5 25.5-8.4 38.6-2.4 17.7-6.4 35.9-9.4 53.3-3.6-35-5.9-69.5-8.8-104.6-.2-2.2-1.3-4.2-3.1-5.5-5-3.6-14.9-9.3-25.1-6.8s-20.4 10.5-20.1 20.7c.9 29.8 0 62.8-.3 92-2.6-8.7-6-18.8-7.3-26.6-3.8-21.8-7.5-40.5-11.4-62.2-.3-2-1.5-3.6-3-4.8-5.4-4.8-12.9-11.3-25.7-7.7-12.7 3.5-21.9 15.7-20.1 26.6 5.4 33.5 8.4 63.8 13.6 97.3-14.1-18.5-49.2-49.3-74.9-40.7-6.9 2.2-12.4 7.3-14.9 14.1-4.3 12.1 3.1 21.5 8.5 28.4 13.4 17.3 24 36.4 31.5 57 2.4 6.7 7.6 12 14.1 14.6 25.2 10.2 48.1 17.2 70.2 21.2 1.2.2 2.2 1.2 2.4 2.4l5 33.5c1.8 9.7 15.9 7.7 14.8-2.2l-5-33.6c-1.2-7.6-7-13.5-14.5-14.9-21-3.9-43-10.6-67.3-20.4-2.6-1.1-4.7-3.2-5.6-5.8-8-22-19.4-42.5-33.7-61-4.6-5.9-7.7-10.2-6.3-14.1 3.9-8.8 16.3-6.4 26.3-.9 14.4 7.5 27.2 18.2 37.1 31.2 4.6 5.9 12.4 8.4 19.5 6.1 23.9-7.5 51.1-3.5 71.2 10.4 20.1 14.1 33.5 12.8 54 .9 18.9-11.1 47.5-21.5 65.3-3.8 14.4 15.8 7.4 40.1-8.2 54.8-3.5 3.5-5.9 8.1-6.6 12.9-2.1 13.2-2.1 25.4-2.1 39.4.3 9.9 14.6 10 15 0 0-14 0-25 1.9-37.1.3-1.8 1.1-3.4 2.3-4.6 16.4-16.2 24.7-37.6 18.2-58.9 6.8-33.8 13.2-70.6 20-104.3.3-1.4.2-2.9-.4-4.2-3.5-9.7-9.9-15.7-17.8-17.2zm-205.2 94.3c-5.2-33.4-8.1-63.6-13.6-97.2-.4-2.4 3.2-8.1 9.4-9.8 4.3-1.2 6.4-.1 10.4 3.3 2.9 16.2 5.6 30.5 8.5 46.3-4.5.5-8.9 2.4-12.5 5.6-5.1 4.5-1.7 13.2 5 13.1 1.8 0 3.6-.6 5-1.9 1.5-1.3 3.3-2 5.2-1.9 2.6 13.4 8.7 28.4 11.3 41.7-9.6-1.1-19.3-.8-28.7.8zm66.5 11.9c-4-2.4-8.3-4.5-12.7-6.3.3-35.3 1.7-82.7.7-118.2 0-.9 3.3-4.3 8.7-5.7 2.5-.6 6.1.4 9.9 2.6 1.5 20 3.2 38.4 4.8 58.4-4-.7-8.2-.2-12.1 1.5-9 4.3-3.3 17.4 6 13.8 2.6-1.1 5.5-.5 7.4 1.5 1.8 21.5 4.3 42.5 6.9 63-6.5-1.6-13.3-6.9-19.6-10.6zm45.1 2.8c-2 1.1-4.1 2.3-6.1 3.3 4.2-22.2 7.9-43.2 12.2-65.4 3.5-17.5 4.5-37.5 10.1-53.4 5.7-4.7 11.7-3.5 16.2 2.2.7 12.5.1 26-.8 41.2-7.8-2.8-22.4.1-18.1 10.9 1.8 3.7 6.3 5.3 10 3.5 2.6-1.2 6.1.6 7.1 3.2-1 14.7-2.2 27.5-3.8 43-9.9 2.7-18.9 7.2-26.8 11.5zm58.4-13.1 24.4-77.5c5.8-5.5 10.5-5 14 2.2-2.3 11.2-4.5 22.9-6.7 34.7-1.8-.8-3.8-1.4-5.9-1.6-9.9-.9-11.7 13.2-1.9 14.9 2 .3 3.7 1.4 4.8 3.1-2.2 11.7-4.4 23.7-6.7 35.4-6-5.6-13.6-9.4-22-11.2zM119 152.8l45.1 25.3c.8.4 1.7.7 2.6.9 1 .2 2.1.1 3.1-.2l79.3-22.2c3.2-.9 5.5-3.9 5.5-7.2V60.2c0-2.7-1.4-5.3-3.8-6.6 0-.1-45.2-25.3-45.2-25.4-1.7-1-3.8-1.2-5.7-.7l-79.3 22.2c-2.2.6-4 2.2-4.9 4.3-.4.9-.6 1.9-.6 2.9v89.3c.1 2.8 1.6 5.3 3.9 6.6zm11.2-83 30.1 16.9v72.1l-30.1-16.9zm109.4 73.9-64.3 18V88l64.3-18zM201 42.8l26.6 14.9-58.8 16.5-26.6-14.9z" fill="#da291c" data-original="#000000" class=""></path><path d="M188.2 113c3.4 1.1 7.4-2 9-6.9 3.4-11.9-8.2-15.6-12.3-3.9-1.6 4.9-.1 9.8 3.3 10.8zM206.7 107.7c3.4 1.1 7.4-2 9-6.9 3.4-11.9-8.2-15.6-12.3-3.9-1.6 4.9-.1 9.8 3.3 10.8zM225.3 102.4c3.4 1.1 7.4-2 9-6.9 3.4-11.9-8.2-15.6-12.3-3.9-1.6 4.9-.1 9.7 3.3 10.8zM188.2 146.3c3.4 1.1 7.4-2 9-6.9 3.4-11.9-8.2-15.6-12.3-3.9-1.6 4.9-.1 9.8 3.3 10.8zM206.7 141c3.4 1.1 7.4-2 9-6.9 3.4-11.9-8.2-15.6-12.3-3.9-1.6 4.9-.1 9.8 3.3 10.8zM225.2 135.7c3.4 1.1 7.4-2 9-6.9 3.4-11.9-8.2-15.6-12.3-3.9-1.5 4.9 0 9.7 3.3 10.8zM147.4 123.3c3.5-.8 5.3-5.5 4.1-10.6-3.2-11.9-15.1-9.1-12.5 3 1.2 5.1 4.9 8.5 8.4 7.6zM175.7 61c.7 3.5 5.4 5.4 10.4 4.4 12-2.9 9.5-14.8-2.6-12.6-5 1-8.5 4.7-7.8 8.2zM150.4 130.9c-3.5.8-5.3 5.5-4.1 10.6 3.2 11.9 15.1 9.1 12.5-3-1.2-5-5-8.4-8.4-7.6zM141.8 98c3.5-.8 5.3-5.5 4.1-10.6-3.2-11.9-15.1-9.1-12.5 3 1.2 5.1 5 8.4 8.4 7.6zM279.5 212.7c.5 2.5 2.4 4.7 4.8 5.5.3.5 49.6 14.6 50 15 1.9.6 4 .4 5.7-.6l72.5-39.1c1.7-.9 3-2.5 3.6-4.4.4-1.2.4-2.6.1-3.8l-19.6-87.1c-.6-2.6-2.6-4.8-5.2-5.5l-49.6-14.8c-1.9-.5-4-.3-5.7.6l-72.5 39.1c-3 1.6-4.5 5-3.8 8.2zm56.1 5.2-29.2-8.7 53.8-29 29.2 8.7zm63.2-41.9-33.1-9.9-15.8-70.3 33.1 9.9zm-64.2-79.7 16.2 71.9-58.8 31.6-16.2-71.9z" fill="#da291c" data-original="#000000" class=""></path><path d="M325.5 155.2c-.4 5.1 2.1 9.5 5.6 9.8 8.5.3 10.1-17.4 1.6-18.6-3.5-.2-6.8 3.7-7.2 8.8zM309.9 157.4c3.5.3 6.8-3.6 7.2-8.7.7-12.4-11.4-13.4-12.8-1.1-.4 5 2.1 9.4 5.6 9.8zM297.3 183.6c3.5.3 6.8-3.6 7.2-8.7.7-12.4-11.4-13.4-12.8-1.1-.5 5.1 2 9.5 5.6 9.8zM325.4 131.9c3.6.3 6.8-3.6 7.3-8.7.8-12.4-11.4-13.5-12.9-1.2-.4 5.1 2.1 9.5 5.6 9.9zM297.2 142.4c.4-5.1-2.1-9.5-5.6-9.8-8.5-.3-10.1 17.4-1.6 18.6 3.5.2 6.7-3.7 7.2-8.8zM356.3 194.6c-1.5-3.2-6.5-4.1-11.2-2-11.1 5.4-6.1 16.5 5.3 11.7 4.8-2.1 7.4-6.5 5.9-9.7zM355.8 115.2c2.3 4.6 6.7 7.1 9.9 5.5 7.5-4.2-.3-20.1-8.2-16.7-3.2 1.6-3.9 6.6-1.7 11.2zM389.4 167.8c3.2-1.6 4-6.6 1.7-11.2-5.7-11-16.7-5.6-11.6 5.7 2.3 4.6 6.8 7 9.9 5.5zM85.1 160.6c6.7 6.6 16.9-2.1 11.4-9.7-10.2-13.5-9.2-24.9 3.4-36.9 2.9-2.7 3.1-7.3.5-10.3s-7.1-3.5-10.2-1.1c-13.5 10.2-24.9 9.2-36.9-3.4-2.7-2.9-7.3-3.1-10.3-.5s-3.5 7.1-1.1 10.2c10.2 13.5 9.2 24.9-3.4 36.9-6.6 6.7 2 16.9 9.7 11.4 13.5-10.2 24.9-9.1 36.9 3.4zm-10.5-24.1c-3.9-1.1-7.9-1.5-11.9-1.1 1.1-3.9 1.5-7.9 1.1-11.9 3.9 1.1 7.9 1.5 11.9 1.1-1.1 3.9-1.5 7.9-1.1 11.9zM394.8 84.4c13.9 4.4 18.6 12.5 15.8 27.1-1.5 9.2 11.4 12.6 14.5 3.7 4.4-14 12.5-18.7 27.2-15.9 3.9.7 7.7-1.7 8.7-5.5 1-3.9-1.2-7.8-5-9-9.2-2.9-18.6-11.3-9.5-51 1.8-9.5-11.5-13-14.5-3.7-11.2 38.8-23.8 41.7-33.5 39.8-9.3-1.5-12.6 11.5-3.7 14.5zm31.9-10c.7-.7 1.3-1.4 2-2.2.8 4.8 2.3 9.2 4.7 13.2-3.5 1.1-6.7 2.8-9.6 5.1-1.4-3.4-3.3-6.4-5.8-9.1 3.1-1.8 6-4.2 8.7-7zM113 225.6l8.8 1.1-1.1 8.8c-.5 4.1 2.4 7.9 6.5 8.4 4 .5 7.9-2.4 8.4-6.5l1.1-8.8c.4 0 9.8 1.3 9.7 1.1 3.7 0 7-2.8 7.4-6.6.5-4.1-2.4-7.9-6.5-8.4l-8.8-1.1 1.1-8.8c.5-4.1-2.4-7.9-6.5-8.4s-7.9 2.4-8.4 6.5l-1.1 8.8-8.8-1.1c-9.8-.8-11.6 13.4-1.8 15zM423.1 218.4l-8.4 2.8-2.8-8.4c-1.3-3.9-5.6-6-9.5-4.7s-6 5.6-4.7 9.5l2.8 8.4-8.4 2.8c-3.9 1.3-6 5.6-4.7 9.5 1 3.1 4 5.1 7.1 5.1 1.7.2 9-2.7 10.8-3.2l2.8 8.4c1.3 4 5.7 6 9.5 4.7 3.9-1.3 6-5.6 4.7-9.5l-2.8-8.4 8.4-2.8c9.2-3.5 4.7-17-4.8-14.2zM457.8 125.4c-11 0-19.9 8.9-19.9 19.9 1.1 26.4 38.7 26.4 39.8 0 0-10.9-9-19.9-19.9-19.9zm0 24.9c-6.5-.2-6.5-9.6 0-9.8 6.4.1 6.4 9.6 0 9.8z" fill="#da291c" data-original="#000000" class=""></path></g></svg>